<?xml version="1.0" standalone="no"?><!DOCTYPE svg PUBLIC "-//W3C//DTD SVG 1.1//EN" "http://www.w3.org/Graphics/SVG/1.1/DTD/svg11.dtd"><svg t="1626065245782" class="icon" viewBox="0 0 1024 1024" version="1.1" xmlns="http://www.w3.org/2000/svg" p-id="7554" xmlns:xlink="http://www.w3.org/1999/xlink" width="200" height="200"><defs><style type="text/css"></style></defs><path d="M512 12.487805c274.731707 0 499.512195 224.780488 499.512195 499.512195s-224.780488 499.512195-499.512195 499.512195-499.512195-224.780488-499.512195-499.512195 224.780488-499.512195 499.512195-499.512195z" fill="#4A79F2" p-id="7555"></path><path d="M703.013463 683.257756c-4.370732-4.395707-10.989268-6.593561-17.557853-6.593561H336.346537c-6.593561 0-13.162146 2.197854-17.557854 8.791415-4.395707 2.197854-6.593561 8.791415-6.593561 15.36v10.989268h399.609756v-10.989268c0-6.568585-2.197854-13.162146-8.791415-17.557854z m-228.327024-37.313561c2.172878 4.370732 4.370732 6.568585 8.766439 6.568585 4.395707 2.197854 6.593561 2.197854 10.989268 2.197854h4.395708v-116.361366h26.349268v114.163512c4.370732 0 6.568585-2.197854 10.989268-4.370731l6.568586-6.593561 127.350634-175.653464c6.568585-4.395707 8.766439-13.187122 6.568585-21.978536l-43.907122-114.138537c-2.197854-4.420683-6.593561-8.791415-10.989268-13.187122-2.172878-2.197854-8.766439-4.395707-13.162146-4.395707h-195.409171c-4.395707 0-8.791415 2.197854-13.162147 4.395707-4.395707 2.197854-6.593561 6.593561-8.791414 10.989269l-46.104976 116.361365c-2.197854 4.395707-2.197854 8.766439-2.197853 13.162147 0 4.395707 2.197854 8.791415 4.395707 13.187122l127.350634 175.653463z m39.511415-276.654829c30.72 0 57.094244 26.349268 57.094244 57.069268 0 15.384976-6.593561 28.547122-17.58283 39.53639-10.989268 10.989268-26.349268 17.557854-41.709268 17.557854-30.72 0-57.094244-26.349268-57.094244-57.094244 2.197854-30.72 26.349268-57.069268 59.292098-57.069268z" fill="#FFFFFF" p-id="7556"></path></svg>