<?xml version="1.0" standalone="no"?><!DOCTYPE svg PUBLIC "-//W3C//DTD SVG 1.1//EN" "http://www.w3.org/Graphics/SVG/1.1/DTD/svg11.dtd"><svg t="1626065328837" class="icon" viewBox="0 0 1024 1024" version="1.1" xmlns="http://www.w3.org/2000/svg" p-id="12420" xmlns:xlink="http://www.w3.org/1999/xlink" width="200" height="200"><defs><style type="text/css"></style></defs><path d="M814.8 118.4H627.4c2 2.8 3.3 6.2 3.3 9.9v16.4c0 9.3-7.5 16.8-16.8 16.8H410.6c-9.3 0-16.8-7.5-16.8-16.8v-16.4c0-3.7 1.2-7.1 3.3-9.9H209.7c-21.3 0-38.6 17.3-38.6 38.6v719.2c0 21.3 17.3 38.6 38.6 38.6h605.1c21.3 0 38.6-17.3 38.6-38.6V157c0-21.3-17.3-38.6-38.6-38.6zM331.2 331.9h180.4c18.3 0 33.2 14.9 33.2 33.2 0 18.3-14.9 33.2-33.2 33.2H331.2c-18.3 0-33.2-14.9-33.2-33.2 0-18.4 14.8-33.2 33.2-33.2z m362.2 420.9H331.2c-18.3 0-33.2-14.9-33.2-33.2 0-18.3 14.9-33.2 33.2-33.2h362.3c18.3 0 33.2 14.9 33.2 33.2-0.1 18.4-15 33.2-33.3 33.2z m0-177.3H331.2c-18.3 0-33.2-14.9-33.2-33.2s14.9-33.2 33.2-33.2h362.3c18.3 0 33.2 14.9 33.2 33.2s-15 33.2-33.3 33.2z" fill="#d81e06" p-id="12421"></path></svg>