<?xml version="1.0" standalone="no"?><!DOCTYPE svg PUBLIC "-//W3C//DTD SVG 1.1//EN" "http://www.w3.org/Graphics/SVG/1.1/DTD/svg11.dtd"><svg t="1626065131765" class="icon" viewBox="0 0 1024 1024" version="1.1" xmlns="http://www.w3.org/2000/svg" p-id="4337" xmlns:xlink="http://www.w3.org/1999/xlink" width="200" height="200"><defs><style type="text/css"></style></defs><path d="M957.3888 779.61728V10.24H153.728a87.61344 87.61344 0 0 0-87.20384 87.82336v784.02048h0.89088a131.42016 131.42016 0 0 0 130.80064 131.7376h729.6a29.27616 29.27616 0 0 0 0-58.55232h-729.6a73.1904 73.1904 0 0 1 0-146.37568h729.6a29.184 29.184 0 0 0 29.07136-29.27616h0.512zM899.25632 68.79232v681.55392H198.21568a129.408 129.408 0 0 0-73.55392 22.86592V98.06336a29.184 29.184 0 0 1 29.06112-29.27104h745.53344zM927.80032 911.36H199.76704a29.27616 29.27616 0 0 1 0-58.5472h728.03328a29.27616 29.27616 0 0 1 0 58.5472zM542.208 660.89984a45.63968 45.63968 0 0 1-6.58432-0.48128 43.21792 43.21792 0 0 1-37.0688-38.85056L478.208 427.25376l-192.93184-20.48a43.9808 43.9808 0 0 1-12.22656-84.19328L705.60768 140.8a43.22816 43.22816 0 0 1 47.616 9.472 44.032 44.032 0 0 1 9.41568 47.96416L582.144 633.856a42.94144 42.94144 0 0 1-39.936 27.04384zM347.95008 354.56512l148.06016 15.70304a43.9808 43.9808 0 0 1 38.79424 39.07072l15.59552 149.11488 144.97792-349.90592z" fill="#288DFD" p-id="4338"></path></svg>