<?xml version="1.0" standalone="no"?><!DOCTYPE svg PUBLIC "-//W3C//DTD SVG 1.1//EN" "http://www.w3.org/Graphics/SVG/1.1/DTD/svg11.dtd"><svg t="1626065359614" class="icon" viewBox="0 0 1024 1024" version="1.1" xmlns="http://www.w3.org/2000/svg" p-id="12843" xmlns:xlink="http://www.w3.org/1999/xlink" width="200" height="200"><defs><style type="text/css"></style></defs><path d="M425.095 743.884H171.348c-41.533 0-75.323-33.79-75.323-75.323V285.927c0-41.533 33.79-75.322 75.323-75.322h499.91c41.533 0 75.322 33.79 75.322 75.322v139.168c0 17.673-14.327 32-32 32s-32-14.327-32-32V285.927c0-6.137-5.185-11.322-11.322-11.322h-499.91c-6.138 0-11.323 5.185-11.323 11.322v382.634c0 6.138 5.185 11.323 11.323 11.323h253.747c17.673 0 32 14.327 32 32s-14.327 32-32 32z" fill="#1296db" p-id="12844"></path><path d="M228.604 344.601c-17.673 0-32-14.327-32-32V127.99c0-17.673 14.327-32 32-32s32 14.327 32 32V312.6c0 17.674-14.327 32.001-32 32.001zM591.604 343.601c-17.673 0-32-14.327-32-32V126.99c0-17.673 14.327-32 32-32s32 14.327 32 32V311.6c0 17.674-14.328 32.001-32 32.001zM325.063 590.853c-10.422 0-20.641-5.085-26.785-14.45l-76.93-117.254c-9.695-14.777-5.575-34.615 9.201-44.31 14.776-9.696 34.614-5.575 44.31 9.201l76.93 117.255c9.695 14.776 5.575 34.614-9.201 44.31a31.867 31.867 0 0 1-17.525 5.248z" fill="#1296db" p-id="12845"></path><path d="M338.604 580.089c-8.467 0-16.916-3.338-23.207-9.962-12.171-12.814-11.65-33.068 1.164-45.24l163.501-155.298c12.814-12.17 33.068-11.65 45.24 1.164 12.171 12.814 11.649 33.069-1.164 45.24L360.637 571.291a31.895 31.895 0 0 1-22.033 8.798zM701.331 925.569c-60.832 0-118.022-23.689-161.037-66.703-43.014-43.015-66.703-100.205-66.703-161.037 0-60.831 23.689-118.021 66.703-161.036 43.015-43.015 100.205-66.704 161.037-66.704s118.022 23.689 161.037 66.704c43.014 43.015 66.703 100.205 66.703 161.036 0 60.832-23.689 118.022-66.703 161.037-43.014 43.014-100.205 66.703-161.037 66.703z m0-391.48c-90.287 0-163.74 73.454-163.74 163.74 0 90.287 73.453 163.74 163.74 163.74s163.74-73.453 163.74-163.74c0-90.286-73.453-163.74-163.74-163.74z" fill="#1296db" p-id="12846"></path><path d="M649.386 732.278c-4.801 13.601-12.601 27.8-20.4 37-2.8-2.6-8.8-6.8-12.399-9 7.6-8.2 14.199-20 17.8-31.999l14.999 3.999z m24.799-10.399v47.399c0 8-1.399 12.399-6.399 14.8-5.4 2.6-12.4 3-22.6 3-0.601-4.4-2.8-11.2-5-15.6 6.399 0.199 12.399 0.199 14.6 0.199s2.6-0.6 2.6-2.6v-47.199h-38.199v-15.8h38.199V687.88h-39.399v-15.601h22c-1-6.999-3.6-17.199-7.2-24.999l15-3.8c3.8 7.8 7 18.8 8 25.799l-11.2 3h27.6c3.601-8.399 7.601-20.6 9.8-28.999l17.2 3.6c-3.4 8.8-7 18-10.2 25.399h23.4v15.601h-38.2v18.199h35.399v15.8h-35.401z m35-78.799h-87.999v-15.399h36.6c-2.2-5.601-4.8-12-7.2-17l16.4-4.2c3.399 6.4 7.399 14.8 9.8 21.2h32.399v15.399z m-16.6 84.199c6.6 9.399 13.399 21.799 16.6 29.999l-13 7.8c-3.2-8.399-10-21.6-16-31.199l12.4-6.6z m107.398-36.399h-20.2v99.198h-18.199V690.88h-25.6v4.199c0 28.6-2.601 68.399-20.4 93.599-2.8-3.399-10.399-9-14.199-11 15.8-23.399 17.199-56.799 17.199-82.599V626.48c22.2-3.8 47-10 61.199-16.2l14.8 13.601c-16.6 6.399-38.199 11.199-58.599 14.8v34.999h63.999v17.2z" fill="#1296db" p-id="12847"></path></svg>